<?xml version="1.0" standalone="no"?>
<!DOCTYPE svg PUBLIC "-//W3C//DTD SVG 20010904//EN"
 "http://www.w3.org/TR/2001/REC-SVG-20010904/DTD/svg10.dtd">
<svg version="1.0" xmlns="http://www.w3.org/2000/svg"
 width="683.000000pt" height="685.000000pt" viewBox="0 0 683.000000 685.000000"
 preserveAspectRatio="xMidYMid meet">
<metadata>
Created by potrace 1.16, written by Peter Selinger 2001-2019
</metadata>
<g transform="translate(0.000000,685.000000) scale(0.100000,-0.100000)"
fill="#432E30" stroke="none">
<path d="M3085 6825 c-60 -7 -133 -16 -161 -19 -203 -20 -625 -136 -819 -225
-22 -10 -80 -36 -129 -57 -115 -50 -293 -148 -421 -231 -55 -37 -102 -69 -105
-72 -3 -3 -27 -22 -55 -41 -163 -113 -414 -342 -553 -505 -23 -27 -50 -59 -61
-70 -10 -11 -47 -58 -83 -105 -202 -264 -377 -586 -507 -930 -65 -174 -141
-500 -172 -740 -19 -141 -19 -723 -1 -835 23 -139 33 -199 42 -240 5 -22 18
-81 30 -131 58 -262 150 -509 290 -780 99 -191 262 -443 368 -567 20 -24 49
-58 63 -75 174 -214 448 -455 724 -637 389 -256 795 -421 1245 -504 258 -48
343 -55 635 -54 299 0 412 11 700 66 119 23 376 95 450 126 11 5 74 30 140 57
125 50 320 144 409 197 310 186 470 309 711 552 164 164 177 178 281 310 293
371 537 872 628 1295 3 14 14 64 25 112 11 48 22 104 25 125 3 21 12 84 20
140 21 139 30 494 17 683 -36 536 -215 1088 -501 1550 -40 63 -76 117 -81 118
-5 2 -9 8 -9 14 0 5 -9 22 -20 36 -12 15 -44 59 -73 97 -66 87 -76 100 -158
194 -75 86 -337 343 -377 369 -14 9 -42 32 -62 49 -19 18 -38 33 -41 33 -3 0
-19 11 -35 25 -49 42 -114 87 -114 78 0 -4 -5 0 -11 9 -22 38 -405 249 -594
328 -44 18 -93 39 -110 46 -192 81 -518 163 -796 200 -160 21 -610 27 -754 9z
m-770 -1240 c94 -20 197 -73 271 -139 l61 -55 28 90 29 89 133 0 133 0 0 -355
0 -355 -145 0 -145 0 0 26 c0 35 -56 199 -82 244 -103 170 -251 251 -458 252
-223 0 -347 -83 -456 -307 -99 -205 -138 -430 -116 -687 31 -371 144 -623 319
-711 108 -55 290 -72 434 -42 214 45 348 181 411 415 l21 80 129 0 c102 0 128
-3 128 -14 0 -28 -52 -193 -85 -269 -95 -220 -283 -378 -520 -437 -179 -45
-423 -45 -600 0 -425 108 -675 500 -675 1055 0 362 103 660 298 866 132 139
257 209 442 248 119 25 342 28 445 6z m2320 -945 c39 -40 39 -40 20 -59 -42
-39 -2374 -2288 -2448 -2360 l-77 -76 -42 43 -43 42 90 89 c276 272 2446 2361
2453 2361 4 0 26 -18 47 -40z m240 -2075 l490 -775 3 648 c1 356 0 652 -2 657
-2 6 -58 24 -125 40 l-121 29 0 88 0 88 395 0 395 0 0 -89 0 -89 -87 -21 c-49
-12 -105 -26 -125 -32 l-38 -10 0 -954 0 -955 -167 0 -168 0 -539 838 c-297
460 -543 841 -548 847 -4 5 -8 -318 -8 -717 l0 -726 88 -21 c48 -12 104 -26
125 -32 l37 -10 0 -89 0 -90 -395 0 -396 0 3 92 3 92 123 30 122 30 0 833 0
832 -37 10 c-21 6 -77 20 -125 32 l-88 21 0 89 0 89 348 0 347 0 490 -775z"/>
</g>
</svg>
